<?xml version="1.0" encoding="UTF-8"?>
<svg xmlns="http://www.w3.org/2000/svg" xmlns:xlink="http://www.w3.org/1999/xlink" width="20px" height="20px" viewBox="0 0 20 20" version="1.1">
<defs>
<filter id="alpha" filterUnits="objectBoundingBox" x="0%" y="0%" width="100%" height="100%">
  <feColorMatrix type="matrix" in="SourceGraphic" values="0 0 0 0 1 0 0 0 0 1 0 0 0 0 1 0 0 0 1 0"/>
</filter>
<mask id="mask0">
  <g filter="url(#alpha)">
<rect x="0" y="0" width="20" height="20" style="fill:rgb(0%,0%,0%);fill-opacity:0.4;stroke:none;"/>
  </g>
</mask>
<clipPath id="clip1">
  <rect x="0" y="0" width="20" height="20"/>
</clipPath>
<g id="surface5" clip-path="url(#clip1)">
<path style=" stroke:none;fill-rule:nonzero;fill:rgb(100%,100%,100%);fill-opacity:1;" d="M 2.917969 9.375 C 2.570312 9.375 2.292969 9.65625 2.292969 10 L 2.292969 14.359375 C 2.292969 15.039062 2.292969 15.582031 2.328125 16.027344 C 2.363281 16.480469 2.445312 16.882812 2.632812 17.253906 C 2.933594 17.839844 3.410156 18.316406 3.996094 18.617188 C 4.367188 18.804688 4.769531 18.886719 5.222656 18.921875 C 5.667969 18.957031 6.210938 18.957031 6.890625 18.957031 L 13.109375 18.957031 C 13.789062 18.957031 14.332031 18.957031 14.777344 18.921875 C 15.230469 18.886719 15.632812 18.804688 16.003906 18.617188 C 16.589844 18.316406 17.066406 17.839844 17.367188 17.253906 C 17.554688 16.882812 17.636719 16.480469 17.671875 16.027344 C 17.707031 15.582031 17.707031 15.039062 17.707031 14.359375 L 17.707031 10 C 17.707031 9.65625 17.429688 9.375 17.082031 9.375 Z M 2.917969 9.375 "/>
</g>
</defs>
<g id="surface1">
<use xlink:href="#surface5" mask="url(#mask0)"/>
<path style=" stroke:none;fill-rule:evenodd;fill:rgb(100%,100%,100%);fill-opacity:1;" d="M 4.226562 5.207031 C 3.230469 3.75 3.90625 1.433594 5.988281 1.078125 C 6.808594 0.941406 7.644531 1.195312 8.253906 1.765625 L 10 3.414062 L 11.75 1.765625 C 12.355469 1.195312 13.195312 0.941406 14.015625 1.078125 C 16.097656 1.433594 16.769531 3.75 15.773438 5.207031 L 16.691406 5.207031 C 16.960938 5.207031 17.203125 5.207031 17.402344 5.222656 C 17.613281 5.242188 17.835938 5.28125 18.046875 5.390625 C 18.363281 5.550781 18.617188 5.804688 18.777344 6.117188 C 18.886719 6.332031 18.925781 6.550781 18.941406 6.765625 C 18.957031 6.964844 18.957031 7.203125 18.957031 7.476562 L 18.957031 8.355469 C 18.957031 8.628906 18.957031 8.867188 18.941406 9.070312 C 18.925781 9.28125 18.886719 9.5 18.777344 9.714844 C 18.617188 10.027344 18.363281 10.285156 18.046875 10.441406 C 17.835938 10.550781 17.613281 10.589844 17.402344 10.609375 C 17.203125 10.625 16.960938 10.625 16.691406 10.625 L 10.625 10.625 L 10.625 18.957031 L 9.375 18.957031 L 9.375 10.625 L 3.308594 10.625 C 3.039062 10.625 2.796875 10.625 2.597656 10.609375 C 2.386719 10.589844 2.164062 10.550781 1.953125 10.441406 C 1.636719 10.285156 1.382812 10.027344 1.222656 9.714844 C 1.113281 9.5 1.074219 9.28125 1.058594 9.070312 C 1.042969 8.867188 1.042969 8.628906 1.042969 8.355469 L 1.042969 7.476562 C 1.042969 7.203125 1.042969 6.964844 1.058594 6.765625 C 1.074219 6.550781 1.113281 6.332031 1.222656 6.117188 C 1.382812 5.804688 1.636719 5.550781 1.953125 5.390625 C 2.164062 5.28125 2.386719 5.242188 2.597656 5.222656 C 2.796875 5.207031 3.039062 5.207031 3.308594 5.207031 Z M 6.195312 2.3125 C 6.628906 2.238281 7.074219 2.371094 7.394531 2.675781 L 9.375 4.542969 C 9.375 4.558594 9.375 4.574219 9.375 4.585938 L 9.375 5.207031 L 6.46875 5.207031 L 5.945312 5.015625 C 4.59375 4.519531 4.773438 2.550781 6.195312 2.3125 Z M 10.625 4.585938 C 10.625 4.574219 10.625 4.558594 10.625 4.542969 L 12.609375 2.675781 C 12.929688 2.371094 13.371094 2.238281 13.804688 2.3125 C 15.226562 2.550781 15.40625 4.519531 14.054688 5.015625 L 13.53125 5.207031 L 10.625 5.207031 Z M 10.625 4.585938 "/>
</g>
</svg>
